<svg xmlns="http://www.w3.org/2000/svg" xmlns:xlink="http://www.w3.org/1999/xlink" version="1.1" x="0px" y="0px" viewBox="0 0 100 100" enable-background="new 0 0 100 100" xml:space="preserve"><path d="M53.1,44.7h-6.2c-2.3,0-4.1,1.9-4.1,4.1v26.3c0,2.3,1.8,4.1,4.1,4.1h6.2c2.3,0,4.1-1.9,4.1-4.1V48.8  C57.1,46.5,55.3,44.7,53.1,44.7L53.1,44.7z M49.9,20.9c-4.7,0-8.4,3.8-8.4,8.5c0,4.7,3.8,8.5,8.4,8.5c4.7,0,8.5-3.8,8.5-8.5  C58.5,24.7,54.7,20.9,49.9,20.9L49.9,20.9z M50,5C25.2,5,5,25.2,5,50s20.2,45,45,45c24.8,0,45-20.2,45-45S74.8,5,50,5L50,5z   M50,88.3c-21.1,0-38.3-17.2-38.3-38.3c0-21,17.2-38.2,38.3-38.2C71,11.8,88.2,29,88.2,50C88.2,71.1,71,88.3,50,88.3z"></path></svg>