<svg xmlns="http://www.w3.org/2000/svg" xmlns:xlink="http://www.w3.org/1999/xlink" version="1.1" x="0px" y="0px" viewBox="0 0 100 125" enable-background="new 0 0 100 100" xml:space="preserve"><g><path d="M47.868,25.804c5.736,0,10.403-4.666,10.403-10.402C58.271,9.667,53.604,5,47.868,5s-10.4,4.667-10.4,10.401   C37.468,21.138,42.132,25.804,47.868,25.804z M47.868,9.523c3.243,0,5.88,2.637,5.88,5.878c0,3.242-2.637,5.881-5.88,5.881   c-3.24,0-5.88-2.639-5.88-5.881C41.988,12.16,44.628,9.523,47.868,9.523z"/><path d="M79.181,35.246c3.1-1.804,5.191-5.153,5.191-8.989c0-5.735-4.665-10.402-10.4-10.402c-5.736,0-10.403,4.667-10.403,10.402   c0,0.742,0.082,1.466,0.23,2.164c-5.234-0.744-12.211-0.807-12.312-0.807c-4.925,0-10.078,0.237-14.408,1.971   c-3.524,1.41-6.475,4.598-8.021,6.523c-1.389-0.797-2.992-1.258-4.705-1.258c-5.238,0-9.498,4.26-9.498,9.496   c0,3.461,1.866,6.485,4.638,8.145c-3.782,0.679-8.563,2.359-9.949,6.518c-1.325,3.977-1.196,8.347-1.084,12.201   c0.032,1.056,0.064,2.093,0.064,3.095c0,4.085,3.041,6.292,5.906,6.292c0.445,0,0.893-0.058,1.33-0.158v8.232   c0,4.133,2.927,6.312,5.821,6.329c0.011,0,0.021,0,0.032,0c1.289,0,2.613-0.46,3.683-1.343C26.355,94.54,27.671,95,28.948,95   c0.012,0,0.021,0,0.032,0c2.868-0.017,5.771-2.196,5.771-6.329V64.719c0.627-0.343,1.415-0.806,2.227-1.354   c0.249,9.642,0.489,20.067,0.489,24.399c0,4.584,3.383,6.983,6.724,6.983c2.03,0,4.078-0.884,5.396-2.604   c1.228,1.76,3.185,2.663,5.124,2.663c3.117,0,6.272-2.335,6.272-6.797c0-5.569,0.645-21.688,1.137-33.124   c0.495-0.465,1.421-1.156,2.461-1.88c0.239,9.164,0.796,30.979,0.796,35.892c0,2.285,0.968,3.695,1.779,4.477   c1.055,1.016,2.469,1.573,3.981,1.573c1.309,0,2.653-0.445,3.737-1.306c1.084,0.86,2.429,1.306,3.736,1.306   c1.514,0,2.927-0.558,3.981-1.573c0.812-0.781,1.778-2.191,1.778-4.477c0-4.57,0.486-14.66,0.744-19.711   c0.205,0.021,0.41,0.035,0.614,0.035c2.89,0,5.878-2.199,5.878-5.879V47.062C91.608,40.712,87.05,36.495,79.181,35.246z    M73.972,20.378c3.24,0,5.879,2.637,5.879,5.879c0,3.241-2.639,5.879-5.879,5.879c-3.243,0-5.88-2.638-5.88-5.879   C68.092,23.015,70.729,20.378,73.972,20.378z M24.352,39.372c2.742,0,4.975,2.232,4.975,4.975c0,2.744-2.232,4.975-4.975,4.975   c-2.743,0-4.975-2.23-4.975-4.975C19.377,41.604,21.608,39.372,24.352,39.372z M36.319,58.126c-1.709,1.711-4.758,3.156-4.787,3.17   c-0.794,0.371-1.301,1.17-1.301,2.047v25.328c0,1.126-0.478,1.803-1.277,1.806c-0.003,0-0.006,0.001-0.007,0.001   c-0.635-0.001-1.314-0.481-1.33-1.834c-0.031-2.664-0.002-9.842,0-9.914c0.004-1.249-1.004-2.266-2.252-2.271   c-0.003,0-0.006,0-0.01,0c-0.017,0-0.032,0.006-0.05,0.006c-0.017,0-0.032-0.006-0.05-0.006c-0.003,0-0.006,0-0.011,0   c-1.248,0.006-2.256,1.022-2.25,2.271c0,0.072,0.029,7.25,0,9.914c-0.021,1.709-1.047,1.846-1.389,1.833   c-0.311-0.001-1.325-0.136-1.325-1.806V74.305v-9.046c0-1.249-1.013-2.262-2.262-2.262c-1.25,0-2.261,1.013-2.261,2.262v9.046   c0,1.597-0.932,1.77-1.33,1.77c-0.325,0-1.384-0.129-1.384-1.77c0-1.046-0.032-2.127-0.064-3.229   c-0.107-3.649-0.22-7.421,0.853-10.636c0.973-2.917,7.507-3.875,10.519-3.883c0.053,0,0.107-0.001,0.161-0.006   c2.326-0.165,8.323-0.804,12.202-3.074c0.037,1.348,0.076,2.781,0.116,4.275C36.649,57.854,36.475,57.972,36.319,58.126z    M54.712,90.283c-0.902,0-1.869-0.661-1.869-2.519c0-4.609-0.868-23.714-0.905-24.525c-0.056-1.204-1.047-2.154-2.253-2.158   c-0.003,0-0.006,0-0.006,0c-1.204,0-2.197,0.943-2.259,2.146c-0.038,0.729-0.908,17.933-0.908,24.312   c0,2.556-1.934,2.686-2.32,2.686c-0.367,0-2.203-0.119-2.203-2.461c0-9.019-1.023-44.035-1.034-44.389   c-0.032-1.087-0.832-1.996-1.907-2.166c-1.081-0.169-2.118,0.449-2.482,1.472l-2.555,7.155c-0.731,0.35-1.666,0.684-2.729,0.986   c1.588-1.699,2.569-3.973,2.569-6.477c0-1.882-0.56-3.633-1.506-5.11c1.312-1.688,3.812-4.411,6.416-5.452   c3.618-1.449,8.256-1.648,12.727-1.648c6.169,0,13.552,0.793,14.877,1.417c0.144,0.097,0.293,0.17,0.448,0.231   c0.708,0.674,1.509,1.25,2.385,1.703c-5.218,1.282-9.747,4.076-9.993,4.229c-0.823,0.515-1.192,1.472-1.008,2.372   c-0.023,0.112-0.047,0.227-0.053,0.346c-0.067,1.488-1.682,36.537-1.682,45.575C56.461,89.687,55.559,90.283,54.712,90.283z    M87.087,63.343c0,1.072-0.887,1.357-1.356,1.357c-1.227,0-1.358-1.581-1.358-2.262V47.966c0-1.248-1.011-2.261-2.26-2.261   c-1.25,0-2.262,1.013-2.262,2.261v14.473c0,1.545,0.341,2.807,0.892,3.809c-0.129,2.373-0.892,16.734-0.892,22.65   c0,1.262-0.673,1.526-1.238,1.526c-0.246,0-1.477-0.085-1.477-1.753V70.579c0-1.249-1.011-2.262-2.26-2.262   c-1.25,0-2.262,1.013-2.262,2.262v18.092c0,1.668-1.229,1.753-1.476,1.753c-0.196,0-0.565-0.04-0.845-0.308   c-0.325-0.313-0.395-0.836-0.395-1.219c0-6.29-0.867-38.711-0.905-40.088c-0.021-0.812-0.476-1.551-1.192-1.933   c-0.715-0.382-1.582-0.354-2.271,0.077c-0.271,0.172-1.662,1.051-3.156,2.079c0.136-3.079,0.237-5.302,0.273-6.083   c2.101-1.154,7.02-3.578,11.323-3.578c11.411,0,13.115,4.816,13.115,7.689V63.343z"/></g><text x="0" y="115" fill="#000000" font-size="5px" font-weight="bold" font-family="'Helvetica Neue', Helvetica, Arial-Unicode, Arial, Sans-serif">Created by Matt Brooks</text><text x="0" y="120" fill="#000000" font-size="5px" font-weight="bold" font-family="'Helvetica Neue', Helvetica, Arial-Unicode, Arial, Sans-serif">from the Noun Project</text></svg>