<svg xmlns="http://www.w3.org/2000/svg" xmlns:xlink="http://www.w3.org/1999/xlink" version="1.1" x="0px" y="0px" viewBox="0 0 100 125" enable-background="new 0 0 100 100" xml:space="preserve"><g><path fill="none" d="M74.684,56.041c-1.281-18.062-15.768-36.422-22.771-43.616c-3.794,8.011-8.96,25.065-10.86,42.979   C58.997,61.495,66.026,60.925,74.684,56.041z"/><path fill="none" d="M50.269,73.652c-9.833-5.498-18.738-9.163-30.403-9.054c0.391,10.463,3.942,16.435,12.591,21.433   c8.175,0.305,30.035,1.973,34.877,2.346c1.623-1.576,5.978-6.118,8.11-11.364c-3.314,0.734-6.232,1.082-8.991,1.082   C60.831,78.095,55.689,76.683,50.269,73.652z"/><path fill="#000000" d="M77.93,72.079c-4.502,1.251-8.148,1.835-11.477,1.835c-4.878,0-9.373-1.243-14.145-3.91   c-4.029-2.253-7.922-4.206-11.908-5.755c0.059-1.521,0.149-3.044,0.263-4.563c8.673,2.896,15.114,4.343,20.665,4.343   c5.992,0,10.953-1.682,16.578-5.023l1.068-0.636l-0.047-1.239C78.094,34.441,58.61,13.314,54.034,8.658   c0.021-0.028,0.043-0.06,0.063-0.088l-0.594-0.445c-0.257-0.255-0.408-0.399-0.426-0.417l-0.053,0.057l-2.271-1.705   c-0.704,0.938-1.462,2.22-2.255,3.814c-5.252,10.577-11.217,32.51-12.22,52.939c-4.947-1.526-10.147-2.4-16.022-2.4   c-0.858,0-1.737,0.021-2.611,0.059l-1.999,0.089v1.999c0,13.358,4.402,21.287,15.195,27.365l0.447,0.252l0.512,0.016   c8.408,0.269,35.854,2.401,36.13,2.424l0.884,0.068l0.664-0.588c0.381-0.337,9.343-8.357,11.065-17.622l0.613-3.296L77.93,72.079z    M51.912,12.425c7.004,7.194,21.49,25.554,22.771,43.616c-8.657,4.884-15.687,5.454-33.631-0.638   C42.952,37.49,48.118,20.436,51.912,12.425z M67.334,88.377c-4.843-0.373-26.702-2.041-34.877-2.346   c-8.649-4.998-12.2-10.97-12.591-21.433c11.666-0.109,20.57,3.556,30.403,9.054c5.421,3.03,10.563,4.442,16.185,4.442   c2.759,0,5.677-0.348,8.991-1.082C73.312,82.259,68.957,86.801,67.334,88.377z"/></g><text x="0" y="115" fill="#000000" font-size="5px" font-weight="bold" font-family="'Helvetica Neue', Helvetica, Arial-Unicode, Arial, Sans-serif">Created by Zahi Asa</text><text x="0" y="120" fill="#000000" font-size="5px" font-weight="bold" font-family="'Helvetica Neue', Helvetica, Arial-Unicode, Arial, Sans-serif">from the Noun Project</text></svg>