<svg xmlns="http://www.w3.org/2000/svg" xmlns:xlink="http://www.w3.org/1999/xlink" version="1.1" x="0px" y="0px" viewBox="0 0 100 125" enable-background="new 0 0 100 100" xml:space="preserve"><path fill-rule="evenodd" clip-rule="evenodd" d="M2,82.353c3.942,0,5.294,1.295,7.46,2.185c-0.108-1.254,0.504-2.747,2.436-4.681  l3.571-3.571c-0.447,0.044-0.933,0.067-1.468,0.067c-6,0-6-3-12-3v-3c2.606,0,4.081,0.567,5.405,1.207  C5.913,68.882,5,65.296,5,61.353c0-6.229,2.698-14.794,6.987-18.64c4.455,11.641,15.023,12.561,32.906,12.634l2.522-2.523  l17.537-17.537c1.948-5.65,1.96-10.446,8.463-16.947l4.242-4.242c4.242-4.242,6.364-2.123,8.485,0l2.121,2.121  c2.121,2.121,4.241,4.244,0,8.484l-4.242,4.244c-6.503,6.501-11.298,6.514-16.948,8.461L49.537,54.944l-0.409,0.408H50  c21,0,33.148,0.069,38.013-12.64C92.302,46.558,95,55.083,95,61.353c0,3.942-0.912,7.529-2.405,10.206  c1.325-0.641,2.8-1.206,5.405-1.206v3c-6,0-6,3-12,3s-6-3-12-3s-6,3-12,3s-6-3-12-3s-6,3-12,3c-2.118,0-3.489-0.374-4.639-0.858  c-0.746,2.358-1.734,4.74-3.683,7.362c2.729,0.855,3.883,2.496,8.322,2.496c6,0,6-3,12-3s6,3,12,3s6-3,12-3s6,3,12,3s6-3,12-3v3  c-6,0-6,3-12,3s-6-3-12-3s-6,3-12,3s-6-3-12-3s-6,3-12,3s-6-3-12-3s-6,3-12,3s-6-3-12-3V82.353L2,82.353z M21.443,80.917  c-0.586-0.585-0.586-1.535,0-2.121l7.2-7.198c-4.31,1.286-7.047,2.804-10.381,6.138l-4.242,4.242  c-1.734,1.734-1.915,2.186-0.864,3.353c0.268,0.016,0.549,0.022,0.845,0.022c6,0,6-3,12-3l0.249,0.001  c2.246-2.619,3.458-5.098,4.513-8.635l-7.198,7.198C22.978,81.503,22.029,81.503,21.443,80.917L21.443,80.917z M37.353,67.129  l-2.145,2.145c-0.415,1.203-0.741,2.368-1.062,3.518c0.995,0.333,2.196,0.562,3.854,0.562c6,0,6-3,12-3s6,3,12,3s6-3,12-3s6,3,12,3  h0.056l0.157-0.001l-0.15,0.001c0.129-0.003,0.257-0.017,0.383-0.04c1.59-0.285,2.883-2.018,3.598-3.338  C91.43,67.416,92,64.241,92,61.353c0-3.75-1.225-9.18-3.445-13.103c-1.041,1.581-2.301,3.007-3.828,4.24  c-4.113,3.328-9.364,4.597-14.514,5.206C63.627,58.476,56.635,58.353,50,58.353c-1.28,0-2.575,0.005-3.877,0.006L37.353,67.129  L37.353,67.129z M33.087,67.152l2.145-2.145l6.662-6.661c-4.072-0.041-8.162-0.183-12.107-0.65  c-5.149-0.609-10.399-1.878-14.514-5.206c-1.525-1.231-2.785-2.657-3.825-4.237C9.23,52.177,8,57.616,8,61.353  c0,2.889,0.57,6.063,1.957,8.622c0.716,1.32,2.008,3.053,3.598,3.338c0.126,0.022,0.255,0.035,0.384,0.04l-0.149-0.001l0.155,0.001  H14c4.491,0,5.621-1.682,8.421-2.526C26.086,68.869,29.406,68.422,33.087,67.152L33.087,67.152z M71.52,32.963  c4.309-1.286,7.047-2.804,10.382-6.139l4.242-4.242c2.112-2.112,1.921-2.322,0-4.242l-2.121-2.121c-1.921-1.92-2.132-2.112-4.243,0  l-4.242,4.242c-3.336,3.334-4.854,6.072-6.139,10.38l7.199-7.198c0.586-0.586,1.536-0.586,2.121,0c0.586,0.586,0.586,1.535,0,2.121  L71.52,32.963L71.52,32.963z"/><text x="0" y="115" fill="#000000" font-size="5px" font-weight="bold" font-family="'Helvetica Neue', Helvetica, Arial-Unicode, Arial, Sans-serif">Created by Stanislav Levin</text><text x="0" y="120" fill="#000000" font-size="5px" font-weight="bold" font-family="'Helvetica Neue', Helvetica, Arial-Unicode, Arial, Sans-serif">from the Noun Project</text></svg>