<svg xmlns="http://www.w3.org/2000/svg" xmlns:xlink="http://www.w3.org/1999/xlink" version="1.1" x="0px" y="0px" viewBox="0 0 100 125" enable-background="new 0 0 100 100" xml:space="preserve"><path fill-rule="evenodd" clip-rule="evenodd" d="M52.336,50.214l45.225,45.226c0.586,0.585,0.586,1.536,0,2.121  c-0.585,0.586-1.535,0.586-2.121,0L50.214,52.335c-2.526,2.858-4.254,6.176-5.185,9.66l-0.001,0.001l-0.001,0.002  c-3.939,1.053-7.664,3.124-10.755,6.214c-3.09,3.091-5.162,6.815-6.213,10.755h-0.001l-0.001,0.002  c-3.939,1.053-7.664,3.124-10.755,6.214c-2.703,2.704-4.625,5.892-5.769,9.284c-14.458-22.424-12.468-52.37,5.972-72.721  l-0.054-0.054c-1.172-1.171-1.172-3.071,0-4.243c1.171-1.171,3.071-1.171,4.243,0l0.054,0.054  c20.351-18.439,50.297-20.43,72.721-5.972c-3.393,1.144-6.58,3.066-9.283,5.769c-3.091,3.091-5.161,6.815-6.215,10.754l-0.001,0.001  l-0.001,0.001c-3.938,1.053-7.663,3.124-10.754,6.214l-0.145,0.145l-0.143,0.146l-0.141,0.147l-0.14,0.147l-0.139,0.149l-0.137,0.15  l-0.135,0.151l-0.134,0.151l-0.132,0.152l0,0l-0.132,0.153l-0.129,0.154l-0.127,0.155l-0.126,0.156l-0.125,0.157l-0.123,0.157l0,0  l-0.122,0.158l-0.12,0.159l-0.119,0.16l-0.117,0.161l0,0l-0.116,0.161L65.5,37.503l0,0l-0.113,0.162v0l-0.111,0.164l-0.109,0.164  l-0.108,0.165l-0.106,0.166l0,0l-0.105,0.166l-0.104,0.167l-0.103,0.167l-0.101,0.168v0l-0.099,0.168l-0.099,0.169l-0.096,0.17  l-0.095,0.17v0l-0.094,0.171l0,0l-0.092,0.171l0,0l-0.09,0.173l0,0l-0.09,0.173l-0.087,0.173l0,0l-0.086,0.174l0,0l-0.085,0.174l0,0  l-0.082,0.175l0,0l-0.082,0.176l0,0l-0.079,0.176l-0.079,0.177l0,0l-0.076,0.177v0l-0.075,0.177h-0.001l-0.074,0.178l-0.072,0.179  l0,0l-0.071,0.179l-0.069,0.18v0l-0.067,0.18l0,0l-0.066,0.18l0,0l-0.065,0.181l0,0l-0.063,0.181l-0.001,0l-0.062,0.182l0,0  l-0.061,0.182l0,0l-0.06,0.183l0,0l-0.058,0.183l0,0l-0.056,0.183l0,0l-0.055,0.184l0,0l-0.053,0.184l0,0l-0.052,0.184l0,0  l-0.05,0.185h-0.001v0.001l-0.001,0.001C58.511,45.959,55.193,47.687,52.336,50.214L52.336,50.214z M11.265,88.015  c1.102-1.791,2.414-3.452,3.915-4.953c2.957-2.958,6.528-5.175,10.471-6.501c0.061-0.183,0.125-0.365,0.19-0.545  C15.296,61.337,10.712,45.352,12.892,33.053C3.079,49.703,2.268,70.513,11.265,88.015L11.265,88.015z M42.681,59.416  c1.331-3.873,3.527-7.384,6.44-10.295c2.914-2.913,6.423-5.109,10.296-6.442C40.49,25.704,25.572,17.812,21.692,21.692  C17.812,25.572,25.706,40.489,42.681,59.416L42.681,59.416z M76.016,25.839c0.182-0.065,0.363-0.128,0.548-0.19  c1.324-3.943,3.543-7.514,6.498-10.47c1.501-1.5,3.162-2.812,4.953-3.914c-17.502-8.997-38.312-8.186-54.961,1.627  C45.352,10.712,61.337,15.295,76.016,25.839z"/><text x="0" y="115" fill="#000000" font-size="5px" font-weight="bold" font-family="'Helvetica Neue', Helvetica, Arial-Unicode, Arial, Sans-serif">Created by Stanislav Levin</text><text x="0" y="120" fill="#000000" font-size="5px" font-weight="bold" font-family="'Helvetica Neue', Helvetica, Arial-Unicode, Arial, Sans-serif">from the Noun Project</text></svg>