<svg xmlns="http://www.w3.org/2000/svg" xmlns:xlink="http://www.w3.org/1999/xlink" version="1.1" x="0px" y="0px" viewBox="0 0 100 125" enable-background="new 0 0 100 100" xml:space="preserve"><path fill="#000000" d="M7.4,91.7c-1.1-1.1-1.1-2.8,0-3.8c1.1-1.1,2.8-1.1,3.8,0c2.3,2.3,4,2.3,6.3,0  c4.4-4.4,9.6-4.4,14,0c1.2,1.2,2.2,1.7,3.2,1.7s2-0.6,3.2-1.7c4.4-4.4,9.6-4.4,14,0c2.3,2.3,4,2.3,6.3,0c4.4-4.4,9.6-4.4,14,0  c2.3,2.3,4,2.3,6.3,0c4.4-4.4,9.6-4.4,14,0c1.1,1.1,1.1,2.8,0,3.8c-1.1,1.1-2.8,1.1-3.8,0c-2.3-2.3-4-2.3-6.3,0  c-2.2,2.2-4.6,3.3-7,3.3s-4.8-1.1-7-3.3c-1.2-1.2-2.2-1.7-3.2-1.7s-2,0.6-3.2,1.7c-4.4,4.4-9.6,4.4-14,0c-2.3-2.3-4-2.3-6.3,0  c-4.4,4.4-9.6,4.4-14,0c-2.3-2.3-4-2.3-6.3,0C17,96.1,11.9,96.1,7.4,91.7z M7.4,74.7c4.4,4.4,9.6,4.4,14,0c2.3-2.3,4-2.3,6.3,0  c4.4,4.4,9.6,4.4,14,0c2.3-2.3,4-2.3,6.3,0c4.4,4.4,9.6,4.4,14,0c1.2-1.2,2.2-1.7,3.2-1.7s2,0.6,3.2,1.7c2.2,2.2,4.6,3.3,7,3.3  s4.8-1.1,7-3.3c2.3-2.3,4-2.3,6.3,0c1.1,1.1,2.8,1.1,3.8,0c1.1-1.1,1.1-2.8,0-3.8c-4.4-4.4-9.6-4.4-14,0c-2.3,2.3-4,2.3-6.3,0  c-4.4-4.4-9.6-4.4-14,0c-2.3,2.3-4,2.3-6.3,0c-4.4-4.4-9.6-4.4-14,0c-1.2,1.2-2.2,1.7-3.2,1.7s-2-0.6-3.2-1.7c-4.4-4.4-9.6-4.4-14,0  c-2.3,2.3-4,2.3-6.3,0c-1.1-1.1-2.8-1.1-3.8,0C6.3,71.9,6.3,73.7,7.4,74.7z M28.4,12.7c14.8-7.4,40.2-3.5,47.7,11.4  c0.7,1.3,0.1,3-1.2,3.6L46.1,42.1l9.6,19.3c0.7,1.3,0.1,3-1.2,3.6c-0.4,0.2-0.8,0.3-1.2,0.3c-1,0-2-0.5-2.4-1.5l-9.6-19.3L13.9,58.3  c-0.4,0.2-0.8,0.3-1.2,0.3c-1,0-2-0.5-2.4-1.5c-3.5-7-3.2-16.2,0.8-25.2C14.8,23.5,21.3,16.3,28.4,12.7z M16,34.1  c-2.9,6.4-3.5,12.8-1.9,18l55.7-27.9c-7.5-10.1-27.3-12.5-39-6.6C24.8,20.6,19.3,26.8,16,34.1z M26,10.8c0.6-0.6,1-1.5,1-2.4  c0-0.9-0.4-1.8-1-2.4c-0.6-0.6-1.5-1-2.4-1s-1.8,0.4-2.4,1c-0.6,0.6-1,1.5-1,2.4s0.4,1.8,1,2.4c0.6,0.6,1.5,1,2.4,1  C24.5,11.8,25.3,11.4,26,10.8z"/><text x="0" y="115" fill="#000000" font-size="5px" font-weight="bold" font-family="'Helvetica Neue', Helvetica, Arial-Unicode, Arial, Sans-serif">Created by Dream Icons</text><text x="0" y="120" fill="#000000" font-size="5px" font-weight="bold" font-family="'Helvetica Neue', Helvetica, Arial-Unicode, Arial, Sans-serif">from the Noun Project</text></svg>