<svg xmlns="http://www.w3.org/2000/svg" xmlns:xlink="http://www.w3.org/1999/xlink" version="1.1" x="0px" y="0px" viewBox="0 0 90 112.5" enable-background="new 0 0 90 90" xml:space="preserve"><g><path d="M45.3,1.5L6.2,63h39.2V1.5z M41.9,59.3H12.6l29.2-45.9V59.3z"/><path d="M83.7,60.5c0-43.6-25.9-45.8-31.1-45.8c-0.7,0-1.1,0-1.1,0L50,14.9V63h33.7V60.5z M53.2,59.5V18.2c3,0.1,9.3,1,15.1,6   c7.9,6.8,12.1,18.7,12.2,35.4H53.2z"/><path d="M21.1,80.3c0.2,0.1,0.3,0.2,0.5,0.3c2.4,1.3,4.8,2,7.4,2.1c0.3,0,0.6,0,0.9,0c2.7,0,5.4-0.7,7.9-2.1v0   c2.5-1.5,5.1-2.4,7.8-2.4c2.4,0,4.8,0.7,7.1,1.9c0.2,0.1,0.3,0.2,0.5,0.3c2.4,1.3,4.8,2,7.4,2.1c0.3,0,0.6,0,0.9,0   c2.7,0,5.4-0.7,7.9-2.1v0c2.5-1.5,5.1-2.4,7.8-2.4c2.2,0,4.4,0.6,6.5,1.6l0-4.2c-2.1-1-4.3-1.5-6.5-1.5h0c-2.7,0-5.3,0.8-7.8,2.3   l0,0c-2.5,1.4-5.2,2.2-7.9,2.2c-2.6,0-5.2-0.7-7.6-1.9l0,0c0,0,0,0,0,0c-2.6-1.6-5.4-2.4-8.3-2.4h0c-2.7,0-5.3,0.8-7.8,2.3l0,0   c-2.5,1.4-5.2,2.2-7.9,2.2c-2.6,0-5.2-0.7-7.6-1.9l0,0c0,0,0,0,0,0c-2.6-1.6-5.4-2.4-8.3-2.4h0c-2.7,0-5.3,0.8-7.8,2.3l0,4.2   c2.5-1.5,5.1-2.4,7.8-2.4C16.5,78.4,18.8,79,21.1,80.3z"/><path d="M83.9,85.5l0-4.2c-2.1-1-4.3-1.5-6.5-1.5l0,0c-2.7,0-5.3,0.8-7.8,2.3l0,0c-2.5,1.4-5.2,2.2-7.9,2.2c-2.6,0-5.2-0.7-7.6-1.9   l0,0c0,0,0,0,0,0c-2.6-1.6-5.4-2.4-8.3-2.4h0c-2.7,0-5.3,0.8-7.8,2.3l0,0c-2.5,1.4-5.2,2.2-7.9,2.2c-2.6,0-5.2-0.7-7.6-1.9l0,0   c0,0,0,0,0,0C19.6,80.9,16.9,80,14,80l0,0c-2.7,0-5.3,0.8-7.8,2.3l0,4.2c2.5-1.5,5.1-2.4,7.8-2.4c2.4,0,4.8,0.7,7.1,1.9   c0.2,0.1,0.3,0.2,0.5,0.3c2.4,1.3,4.8,2,7.4,2.1c0.3,0,0.6,0,0.9,0c2.7,0,5.4-0.7,7.9-2.1l0,0c2.5-1.5,5.1-2.4,7.8-2.4   c2.4,0,4.8,0.7,7.1,1.9c0.2,0.1,0.3,0.2,0.5,0.3c2.4,1.3,4.8,2,7.4,2.1c0.3,0,0.6,0,0.9,0c2.7,0,4,0,7.9-2.1l0,0   c2.5-1.5,5.1-2.4,7.8-2.4C79.6,83.9,81.8,84.4,83.9,85.5z"/><path d="M21.7,74.6L21.7,74.6C21.7,74.6,21.7,74.6,21.7,74.6c2.6,1.5,5.3,2.4,8.2,2.3h0c2.7,0,5.4-0.8,7.9-2.3l0,0   c2.5-1.4,5.1-2.1,7.8-2.1c2.7,0,5.2,0.7,7.7,2l0,0c0,0,0,0,0,0c2.6,1.6,5.4,2.4,8.2,2.4l0,0c2.7,0,5.4-0.8,7.9-2.3l0,0   c2.5-1.4,5.1-2.1,7.8-2.1c2.2,0,4.4,0.5,6.5,1.4l0-4.2c-1.8-0.8-3.7-1.2-5.6-1.3c-0.3,0-0.6,0-0.9,0c-2.7,0-5.3,0.7-7.8,2v0   c-2.5,1.6-5.2,2.4-7.9,2.4c-2.4,0-4.8-0.7-7.1-1.9c-0.2-0.1-0.3-0.2-0.5-0.3c-2.4-1.3-4.8-2-7.4-2.1c-0.3,0-0.6,0-0.9,0   c-2.7,0-5.3,0.7-7.8,2v0c-2.5,1.6-5.2,2.4-7.9,2.4c-2.4,0-4.8-0.7-7.1-1.9c-0.2-0.1-0.3-0.2-0.5-0.3c-2.4-1.3-4.8-2-7.4-2.1   c-0.3,0-0.6,0-0.9,0c-2.7,0-5.3,0.7-7.8,2l0,4.2c2.5-1.4,5.1-2.1,7.8-2.1C16.6,72.6,19.2,73.3,21.7,74.6z"/></g><text x="0" y="105" fill="#000000" font-size="5px" font-weight="bold" font-family="'Helvetica Neue', Helvetica, Arial-Unicode, Arial, Sans-serif">Created by Rachel Harris</text><text x="0" y="110" fill="#000000" font-size="5px" font-weight="bold" font-family="'Helvetica Neue', Helvetica, Arial-Unicode, Arial, Sans-serif">from the Noun Project</text></svg>