<svg xmlns="http://www.w3.org/2000/svg" xmlns:xlink="http://www.w3.org/1999/xlink" version="1.1" x="0px" y="0px" viewBox="0 0 90 112.5" enable-background="new 0 0 90 90" xml:space="preserve"><path d="M64.971,38.301c-1.103,0-2.172,0.145-3.19,0.412l-3.741-10.335h6.932c1.271,0,2.245,0.452,2.675,1.238  c0.297,0.544,0.274,1.156-0.062,1.677c-0.589,0.917-1.975,1.373-3.814,1.235c-0.634-0.038-1.176,0.429-1.222,1.056  c-0.045,0.629,0.428,1.175,1.057,1.221c2.691,0.19,4.844-0.635,5.899-2.277c0.79-1.228,0.843-2.725,0.145-4.005  c-0.83-1.52-2.578-2.427-4.678-2.427h-8.559c-0.373,0-0.722,0.181-0.936,0.486c-0.213,0.304-0.265,0.694-0.138,1.044l1.306,3.605  h-19.27l-0.618-1.712h3.107c0.63,0,1.141-0.511,1.141-1.141c0-0.63-0.511-1.141-1.141-1.141h-7.417c-0.63,0-1.141,0.511-1.141,1.141  c0,0.63,0.511,1.141,1.141,1.141h1.913c0.011,0.081,0.028,0.16,0.057,0.239l0.794,2.198l-4.631,7.643  c-1.675-0.829-3.558-1.298-5.55-1.298c-6.921,0-12.553,5.631-12.553,12.553s5.631,12.553,12.553,12.553  c6.418,0,11.723-4.842,12.462-11.064h2.812c0.587,1.045,1.705,1.754,2.985,1.754c1.888,0,3.424-1.537,3.424-3.424  c0-0.604-0.159-1.172-0.435-1.665L57.79,34.396l1.845,5.099c-4.261,2.009-7.217,6.344-7.217,11.359  c0,6.922,5.631,12.553,12.553,12.553s12.553-5.631,12.553-12.553S71.893,38.301,64.971,38.301 M55.579,33.513L44.562,47.497  c-0.395-0.159-0.824-0.248-1.274-0.248c-0.042,0-0.083,0.005-0.124,0.006L38.2,33.513H55.579z M36.207,34.715l4.834,13.381  c-0.573,0.5-0.978,1.187-1.119,1.965h-2.368c-0.237-3.789-2.161-7.127-5.03-9.27L36.207,34.715z M35.259,50.061h-8.352l4.423-7.299  C33.545,44.49,35.031,47.099,35.259,50.061 M25.029,61.125c-5.663,0-10.271-4.607-10.271-10.271s4.608-10.271,10.271-10.271  c1.559,0,3.032,0.359,4.357,0.983l-5.333,8.799c-0.136,0.225-0.181,0.477-0.153,0.719c-0.004,0.039-0.012,0.077-0.012,0.116  c0,0.631,0.511,1.142,1.141,1.142h10.15C34.455,57.302,30.186,61.125,25.029,61.125 M43.288,51.813  c-0.629,0-1.141-0.513-1.141-1.141c0-0.63,0.512-1.142,1.141-1.142s1.141,0.512,1.141,1.142  C44.429,51.301,43.917,51.813,43.288,51.813 M64.971,61.125c-5.663,0-10.271-4.607-10.271-10.271c0-4.027,2.336-7.511,5.719-9.193  l3.479,9.608c0.168,0.464,0.606,0.754,1.073,0.754c0.129,0,0.26-0.022,0.388-0.069c0.594-0.214,0.899-0.869,0.686-1.461l-3.48-9.613  c0.773-0.187,1.577-0.296,2.407-0.296c5.663,0,10.271,4.607,10.271,10.271S70.634,61.125,64.971,61.125"/><text x="0" y="105" fill="#000000" font-size="5px" font-weight="bold" font-family="'Helvetica Neue', Helvetica, Arial-Unicode, Arial, Sans-serif">Created by ▲▲▲</text><text x="0" y="110" fill="#000000" font-size="5px" font-weight="bold" font-family="'Helvetica Neue', Helvetica, Arial-Unicode, Arial, Sans-serif">from the Noun Project</text></svg>