<svg xmlns="http://www.w3.org/2000/svg" xmlns:xlink="http://www.w3.org/1999/xlink" version="1.1" x="0px" y="0px" viewBox="0 0 100 125" enable-background="new 0 0 100 100" xml:space="preserve"><g><g><path d="M78.2,49.7l-1.7-4.9c-0.2-0.7-1-1.1-1.7-0.9L39,56.1c-0.7,0.2-1.1,1-0.9,1.7l1.7,4.9c0.2,0.7,1,1.1,1.7,0.9l35.9-12.2    C78.1,51.2,78.5,50.4,78.2,49.7z"/><path d="M73.7,41.7c0.9-0.3,1.4-1.3,1.1-2.2L73.9,37c-2.3-6.8-9.8-10.5-16.7-8.2l-4.2,1.4L52,28.1l-0.3-0.4c-3.5-5-9.3-8-15.4-8    H25.6v-2.3C25.6,10.5,20.1,5,13.3,5h-2.4v37.6h2.4c6.8,0,12.3-5.5,12.3-12.3V28h10.7c3.3,0,6.5,1.6,8.5,4.3l0.3,0.6l-1.4,0.5    c-6.8,2.3-10.5,9.8-8.2,16.7l0.8,2.5c0.3,0.9,1.3,1.4,2.2,1.1L73.7,41.7z"/><path d="M79.6,58.4l-0.1-0.1c-0.6-1.4-2.3-2.1-3.7-1.5l-0.3,0.1c-1.4,0.6-2.1,2.3-1.5,3.7l0.1,0.1c0.6,1.4,2.3,2.1,3.7,1.5    l0.3-0.1C79.5,61.5,80.2,59.8,79.6,58.4z"/><path d="M84.2,69.1L84.2,69.1c-0.7-1.5-2.3-2.1-3.7-1.5l-0.3,0.1c-1.4,0.6-2.1,2.3-1.5,3.7l0,0.1c0.6,1.4,2.3,2.1,3.7,1.5l0.3-0.1    C84.2,72.2,84.9,70.5,84.2,69.1z"/><path d="M88.9,79.8L88.9,79.8c-0.7-1.5-2.3-2.1-3.7-1.5l-0.3,0.1c-1.4,0.6-2.1,2.3-1.5,3.7l0,0.1c0.6,1.4,2.3,2.1,3.7,1.5l0.3-0.1    C88.9,82.9,89.5,81.2,88.9,79.8z"/><path d="M66.4,60.5L66,60.6c-1.5,0.5-2.3,2.1-1.8,3.5l0,0.1c0.5,1.5,2.1,2.3,3.5,1.8l0.3-0.1c1.5-0.5,2.3-2.1,1.8-3.5l0-0.1    C69.4,60.8,67.8,60,66.4,60.5z"/><path d="M71.7,77.1c1.5-0.5,2.3-2.1,1.8-3.5l0-0.1c-0.5-1.5-2.1-2.3-3.5-1.8l-0.3,0.1c-1.5,0.5-2.3,2.1-1.8,3.5l0,0.1    c0.5,1.5,2.1,2.3,3.5,1.8L71.7,77.1z"/><path d="M77.1,84.6c-0.5-1.5-2.1-2.3-3.5-1.8l-0.3,0.1c-1.5,0.5-2.3,2.1-1.8,3.5l0,0.1c0.5,1.5,2.1,2.3,3.5,1.8l0.3-0.1    C76.8,87.7,77.6,86.1,77.1,84.6L77.1,84.6z"/><path d="M58.3,69.1c1.5-0.5,2.3-2.1,1.8-3.5v0c-0.5-1.5-2.1-2.3-3.5-1.8l-0.3,0.1c-1.5,0.5-2.3,2.1-1.8,3.5    c0.5,1.5,2.1,2.3,3.5,1.8L58.3,69.1z"/><path d="M61.9,80.2c1.5-0.5,2.3-2.1,1.8-3.5l0-0.1c-0.5-1.5-2.1-2.3-3.5-1.8l-0.3,0.1c-1.5,0.5-2.3,2.1-1.8,3.5l0,0.1    c0.5,1.5,2.1,2.3,3.5,1.8L61.9,80.2z"/><path d="M67.3,87.7c-0.5-1.5-2.1-2.3-3.5-1.8L63.4,86c-1.5,0.5-2.3,2.1-1.8,3.5l0,0.1c0.5,1.5,2.1,2.3,3.5,1.8l0.3-0.1    C67,90.8,67.8,89.3,67.3,87.7L67.3,87.7z"/><path d="M48.1,72.1l0.3-0.1c1.5-0.3,2.5-1.8,2.2-3.3l0-0.1c-0.3-1.5-1.8-2.5-3.3-2.2L47,66.5c-1.5,0.3-2.5,1.8-2.2,3.3l0,0.1    C45.1,71.4,46.6,72.4,48.1,72.1z"/><path d="M50.5,83.5l0.3-0.1c1.5-0.3,2.5-1.8,2.2-3.3l0-0.1c-0.3-1.5-1.8-2.5-3.3-2.2l-0.3,0.1c-1.5,0.3-2.5,1.8-2.2,3.3l0,0.1    C47.5,82.8,49,83.8,50.5,83.5z"/><path d="M55.4,91.5c-0.3-1.5-1.8-2.5-3.3-2.2l-0.3,0.1c-1.5,0.3-2.5,1.8-2.2,3.3l0,0.1c0.3,1.5,1.8,2.5,3.3,2.2l0.3-0.1    C54.7,94.6,55.7,93.1,55.4,91.5L55.4,91.5z"/></g></g><text x="0" y="115" fill="#000000" font-size="5px" font-weight="bold" font-family="'Helvetica Neue', Helvetica, Arial-Unicode, Arial, Sans-serif">Created by parkjisun</text><text x="0" y="120" fill="#000000" font-size="5px" font-weight="bold" font-family="'Helvetica Neue', Helvetica, Arial-Unicode, Arial, Sans-serif">from the Noun Project</text></svg>